<?xml version="1.0" standalone="no"?>
<!DOCTYPE svg PUBLIC "-//W3C//DTD SVG 20010904//EN"
 "http://www.w3.org/TR/2001/REC-SVG-20010904/DTD/svg10.dtd">
<svg version="1.0" xmlns="http://www.w3.org/2000/svg"
 width="1080.000000pt" height="663.000000pt" viewBox="0 0 1080.000000 663.000000"
 preserveAspectRatio="xMidYMid meet">

<g transform="translate(0.000000,663.000000) scale(0.100000,-0.100000)"
fill="#000000" stroke="none">
<path d="M5145 6204 c-459 -44 -885 -187 -1285 -431 -220 -135 -508 -385 -682
-593 -363 -432 -579 -920 -665 -1495 -13 -92 -18 -183 -18 -390 0 -148 4 -282
8 -298 l7 -27 2893 2 2892 3 0 345 c0 384 -7 449 -80 728 -98 372 -292 757
-541 1071 -103 129 -366 389 -489 482 -412 313 -851 501 -1370 586 -86 14
-574 26 -670 17z"/>
<path d="M960 2753 c-8 -3 -39 -14 -67 -25 -117 -43 -242 -173 -257 -268 -14
-87 33 -160 104 -160 25 0 25 0 25 93 0 85 3 96 31 147 28 49 108 120 135 120
14 0 11 -26 -7 -68 -9 -20 -43 -111 -76 -202 -34 -91 -71 -192 -83 -225 -63
-170 -135 -368 -135 -371 0 -2 24 -4 54 -4 l54 0 17 48 c9 26 21 58 27 72 6
14 36 97 68 185 97 266 92 266 84 0 -4 -126 -8 -246 -8 -265 l-1 -35 89 0 89
0 104 245 c129 303 122 287 122 275 0 -5 -6 -55 -14 -110 -24 -160 -55 -389
-55 -402 0 -10 25 -13 94 -13 l93 0 12 83 c31 228 76 540 102 708 10 70 19
134 19 143 0 14 -14 16 -95 16 -90 0 -96 -1 -105 -22 -34 -83 -73 -176 -80
-193 -18 -43 -61 -145 -110 -265 -29 -69 -56 -129 -62 -135 -10 -10 -10 9 9
457 l6 157 -27 11 c-28 10 -130 13 -156 3z"/>
<path d="M3969 2742 c-97 -36 -168 -111 -170 -182 -3 -104 10 -133 118 -258
43 -49 92 -113 107 -142 53 -97 34 -218 -40 -267 -34 -22 -108 -19 -144 7 -33
23 -54 84 -44 125 9 35 58 74 105 81 47 8 50 25 10 65 -25 24 -37 29 -81 29
-118 0 -194 -82 -194 -210 0 -70 15 -108 58 -152 53 -52 90 -63 221 -63 112 0
124 2 175 28 70 36 126 90 153 147 18 36 22 63 22 140 0 126 -23 169 -150 292
-139 134 -168 220 -94 282 45 38 119 37 149 -1 27 -34 22 -91 -10 -136 -28
-37 -16 -52 42 -52 34 0 45 6 69 35 24 28 29 43 29 88 0 73 -25 113 -89 141
-61 26 -174 27 -242 3z"/>
<path d="M5985 2683 c-51 -6 -61 -15 -70 -61 -3 -20 -17 -86 -30 -147 -13 -60
-38 -177 -55 -260 -17 -82 -38 -170 -47 -195 -22 -63 -59 -100 -100 -100 -45
0 -52 32 -29 135 51 228 51 304 2 354 -21 20 -37 26 -89 29 -72 5 -129 -17
-166 -63 l-20 -26 -25 39 c-43 68 -133 73 -248 14 -5 -2 -8 6 -8 17 0 20 -5
21 -93 21 l-94 0 -20 -92 c-12 -51 -31 -142 -43 -203 l-22 -110 -59 -57 c-46
-43 -71 -59 -110 -68 -74 -18 -117 -7 -135 35 -8 19 -14 50 -14 68 0 33 2 34
63 51 166 46 266 182 226 308 -19 59 -61 80 -149 76 -146 -8 -250 -104 -306
-285 -22 -69 -25 -97 -22 -177 3 -108 17 -135 84 -173 30 -18 55 -23 111 -23
91 0 165 26 229 83 l47 41 -7 -62 -7 -63 92 3 93 3 8 30 c4 17 17 73 28 125
48 238 61 286 85 322 29 44 69 59 93 35 18 -18 10 -68 -52 -352 -18 -82 -30
-154 -26 -158 4 -4 47 -7 96 -5 l89 3 17 80 c9 44 26 127 37 185 37 183 74
260 125 260 51 0 59 -54 25 -185 -29 -114 -36 -242 -16 -282 22 -41 72 -63
145 -63 49 0 66 5 98 28 21 16 45 36 53 45 18 23 26 21 39 -8 21 -46 68 -65
158 -65 70 0 89 4 142 31 100 49 166 148 197 293 31 139 2 276 -64 310 -35 18
-113 21 -143 5 -11 -6 -22 -8 -26 -5 -4 5 19 131 45 244 5 21 2 22 -43 20 -27
-1 -67 -3 -89 -5z m-1287 -355 c4 -56 -16 -104 -62 -149 -26 -27 -82 -59 -101
-59 -25 0 47 180 90 226 46 49 69 43 73 -18z m1447 5 c24 -24 35 -58 35 -113
0 -98 -41 -221 -93 -277 -37 -41 -118 -23 -117 25 1 9 10 58 20 107 11 50 27
123 35 164 17 84 26 98 63 104 15 2 30 5 34 6 4 0 14 -6 23 -16z"/>
<path d="M7233 2683 c-23 -2 -46 -10 -52 -17 -10 -12 -23 -67 -81 -346 -49
-237 -62 -286 -87 -338 -20 -41 -36 -60 -56 -67 -66 -22 -81 34 -47 184 49
222 59 268 65 304 l7 37 -96 0 c-79 0 -96 -3 -96 -15 0 -19 -5 -19 -35 1 -38
25 -137 20 -199 -10 -112 -55 -196 -214 -211 -401 -5 -59 -2 -79 17 -125 31
-73 71 -100 150 -100 66 0 101 14 159 67 27 25 39 31 39 20 0 -9 14 -32 31
-52 30 -33 34 -35 98 -35 51 0 75 6 108 24 l42 24 3 -21 c3 -21 9 -22 96 -25
50 -1 92 0 92 4 0 6 18 91 71 334 31 142 73 203 128 185 37 -11 37 -57 0 -205
-43 -176 -34 -259 33 -300 70 -43 199 -18 246 47 l20 28 13 -28 c31 -68 145
-89 227 -42 40 23 42 23 42 5 0 -15 -17 -28 -63 -48 -123 -56 -171 -125 -147
-212 13 -47 42 -69 106 -81 102 -19 198 31 240 126 17 39 44 144 44 171 0 1
26 14 57 29 31 14 69 39 84 56 l27 31 17 -31 c24 -48 70 -71 138 -71 65 0 100
15 156 66 l39 34 6 -23 c3 -13 18 -36 32 -50 23 -23 35 -27 89 -27 47 0 73 6
109 25 l46 24 0 -24 c0 -25 1 -25 90 -25 63 0 92 4 95 13 3 6 25 106 50 221
47 223 71 279 120 292 61 15 69 -39 30 -211 -14 -60 -25 -138 -25 -173 0 -61
2 -66 39 -103 37 -38 41 -39 108 -39 72 0 91 8 149 62 l30 28 47 -45 c46 -44
49 -45 113 -45 50 0 75 5 101 21 19 12 37 18 40 15 11 -10 -9 -22 -64 -40
-106 -35 -153 -89 -153 -177 0 -84 62 -133 167 -132 67 1 106 18 155 70 35 38
54 86 79 207 12 55 29 139 39 186 10 47 27 130 39 185 11 55 30 143 41 195 11
52 20 101 20 108 0 9 -26 12 -95 12 -81 0 -95 -2 -95 -16 0 -15 -3 -15 -26 1
-37 24 -139 23 -196 -3 -107 -48 -218 -245 -218 -389 0 -60 -42 -113 -90 -113
-32 0 -50 17 -50 46 0 12 14 81 30 154 34 149 37 207 14 255 -23 49 -67 68
-147 63 -43 -2 -72 -10 -85 -21 -25 -23 -41 -21 -35 3 5 19 0 20 -90 20 l-96
0 -15 -72 c-9 -40 -23 -104 -31 -143 -8 -38 -22 -104 -31 -145 -18 -84 -34
-120 -66 -150 -27 -25 -60 -26 -82 -1 -19 21 -21 9 49 336 13 61 26 125 30
143 l7 32 -95 0 c-76 0 -96 -3 -101 -15 -5 -14 -8 -14 -30 0 -40 26 -138 21
-201 -10 -100 -49 -205 -230 -205 -354 0 -64 -21 -114 -65 -158 -23 -24 -50
-43 -58 -43 -18 0 -17 9 10 130 19 88 93 440 93 446 0 2 -42 4 -94 4 l-94 0
-20 -92 c-11 -51 -33 -151 -49 -222 -32 -151 -62 -206 -113 -206 -53 0 -52 20
15 329 19 90 35 170 35 177 0 12 -18 14 -92 12 l-93 -3 -16 -70 c-9 -38 -27
-119 -39 -180 -40 -200 -74 -265 -137 -265 -56 0 -62 29 -29 158 71 272 38
370 -120 360 -46 -3 -72 -10 -94 -26 -17 -13 -30 -17 -30 -11 0 6 11 64 25
128 14 64 28 126 30 139 5 21 2 22 -42 20 -27 -1 -67 -3 -90 -5z m-492 -333
c25 -14 24 -32 -11 -200 -39 -183 -67 -230 -134 -230 -44 0 -60 38 -53 129 8
106 49 212 102 268 43 44 62 51 96 33z m1960 -6 c11 -14 9 -38 -15 -155 -36
-181 -45 -206 -79 -240 -35 -36 -79 -39 -101 -7 -34 48 -7 229 48 322 48 82
115 118 147 80z m1317 4 c7 -7 12 -24 12 -40 0 -46 -60 -311 -76 -335 -37 -57
-107 -69 -132 -23 -18 34 -9 147 19 228 45 132 132 215 177 170z m-112 -646
c-22 -83 -54 -120 -91 -106 -31 12 -38 42 -18 77 21 36 77 77 104 77 16 0 16
-4 5 -48z m-1976 -10 c0 -10 -10 -38 -22 -62 -25 -49 -55 -62 -78 -35 -19 23
9 77 52 98 42 21 48 21 48 -1z"/>
<path d="M2496 2466 l-78 -11 -38 -107 c-44 -124 -119 -278 -138 -285 -16 -7
-52 -76 -52 -101 0 -37 -55 -65 -86 -44 -27 18 -24 43 30 302 14 69 30 143 36
165 5 22 10 43 10 48 0 4 -43 7 -95 7 -75 0 -97 -3 -101 -15 -5 -12 -9 -12
-29 1 -28 18 -114 20 -174 4 -79 -21 -177 -147 -217 -279 -8 -25 -17 -83 -20
-127 -6 -74 -4 -86 19 -137 32 -71 71 -97 145 -97 65 0 106 17 155 63 l38 35
18 -37 c26 -51 56 -64 133 -59 51 3 73 10 111 36 l47 32 46 -35 c43 -33 49
-35 127 -35 98 0 131 13 237 93 41 32 77 57 80 57 3 0 13 -22 23 -50 25 -69
71 -100 150 -100 67 0 106 17 159 67 l37 36 14 -35 c20 -48 52 -68 108 -68 55
0 93 25 114 77 20 48 20 51 -17 55 -29 3 -33 7 -36 36 -2 18 4 67 13 110 9 42
25 118 36 167 10 50 23 108 28 130 20 77 22 75 -83 75 -78 0 -95 -3 -100 -16
-6 -15 -8 -15 -26 1 -25 23 -130 23 -188 0 -102 -41 -222 -243 -222 -373 0
-21 -8 -37 -26 -51 -38 -30 -44 -27 -44 27 0 26 -5 106 -11 177 -5 72 -13 163
-15 203 -5 59 -9 72 -22 71 -10 -1 -52 -7 -96 -13z m-555 -116 c25 -14 24 -30
-7 -174 -42 -200 -72 -256 -135 -256 -48 0 -63 36 -56 135 9 123 64 250 126
289 31 18 46 20 72 6z m1167 -2 c18 -18 15 -54 -17 -202 -32 -145 -48 -186
-83 -210 -28 -20 -72 -21 -88 -1 -31 37 -19 180 22 280 47 110 126 173 166
133z m-669 -208 c13 -145 6 -199 -32 -225 -28 -20 -101 -20 -121 1 -23 22 -20
44 6 44 12 0 30 7 40 17 19 17 25 72 9 89 -6 5 6 42 30 94 21 47 39 91 39 98
0 6 4 12 8 12 5 0 14 -59 21 -130z"/>
<path d="M3295 1290 c17 -27 262 -242 360 -315 387 -289 834 -476 1315 -552
166 -26 694 -26 860 0 601 94 1146 364 1590 786 l95 90 -2113 1 c-1442 0
-2111 -3 -2107 -10z"/>
</g>
</svg>
